PathFileType	4	(X/Y/Z)	C:/Users/opensim2020/Desktop/walking_exp_matlab/subject02_walking04_straight_04.trc	
DataRate	CameraRate	NumFrames	NumMarkers	Units	OrigDataRate	OrigDataStartFrame	OrigNumFrames	
100.00	100.00	4	42	mm	100.00	3133	239	
Frame#	Time	LFHD			RFHD			LBHD			RBHD			C7			T10			CLAV			STRN			RBAK			LSHO			LUPA			LELB			LFRM			LWRA			LWRB			LFIN			RSHO			RUPA			RELB			RFRM			RWRA			RWRB			RFIN			LASI			RASI			LPSI			RPSI			LTHI			LKNE			LTIB			LANK			LHEE			LTOE			RTHI			RKNE			RTIB			RANK			RHEE			RTOE			*39			*40			*41			
		X1	Y1	Z1	X2	Y2	Z2	X3	Y3	Z3	X4	Y4	Z4	X5	Y5	Z5	X6	Y6	Z6	X7	Y7	Z7	X8	Y8	Z8	X9	Y9	Z9	X10	Y10	Z10	X11	Y11	Z11	X12	Y12	Z12	X13	Y13	Z13	X14	Y14	Z14	X15	Y15	Z15	X16	Y16	Z16	X17	Y17	Z17	X18	Y18	Z18	X19	Y19	Z19	X20	Y20	Z20	X21	Y21	Z21	X22	Y22	Z22	X23	Y23	Z23	X24	Y24	Z24	X25	Y25	Z25	X26	Y26	Z26	X27	Y27	Z27	X28	Y28	Z28	X29	Y29	Z29	X30	Y30	Z30	X31	Y31	Z31	X32	Y32	Z32	X33	Y33	Z33	X34	Y34	Z34	X35	Y35	Z35	X36	Y36	Z36	X37	Y37	Z37	X38	Y38	Z38	X39	Y39	Z39	X40	Y40	Z40	X41	Y41	Z41	X42	Y42	Z42	

210	2.090	1533.72266	-869.94189	1708.04053	1393.91064	-839.71460	1687.52405	1568.61682	-728.73975	1667.20471	1430.90735	-688.13544	1648.64941	1503.74707	-632.47333	1527.16248	1501.83643	-570.94019	1246.97314	1509.73206	-768.14056	1449.11755	1503.78833	-815.29596	1278.79565	1444.27588	-564.22864	1348.80200	1679.08606	-710.37537	1502.36719	1783.00989	-728.36298	1313.22424	1814.79907	-758.16541	1178.04688	1833.46191	-814.63940	1058.28613	1803.59265	-910.35400	961.38928	1839.67468	-868.49652	948.03204	1846.69861	-912.62622	899.09595	1315.02209	-699.23236	1481.19604	1235.77368	-663.72113	1289.99573	1213.42407	-681.88721	1144.33704	1192.21594	-726.63086	1032.20337	1206.97595	-798.13275	917.38000	1180.00952	-750.01624	904.21826	1172.61157	-799.34930	851.53931	1636.04004	-809.23529	985.70599	1377.56396	-811.46973	977.92816	1551.85449	-598.00067	1024.51477	1437.79541	-592.85199	1023.72400	1672.08130	-737.50397	673.53668	1637.58215	-694.21924	473.11801	1633.49597	-624.01752	289.96011	1589.90320	-610.94489	68.91777	1538.55383	-573.73401	43.03065	1603.58337	-766.29297	28.38114	1287.48865	-787.51276	679.07263	1307.57813	-843.09833	477.21539	1311.80798	-806.69019	292.86014	1346.44373	-807.80554	99.79764	1411.79028	-801.29773	42.58253	1281.51245	-943.96808	50.56942	1458.56372	-771.89526	1795.20166						 
211	2.100	1532.40662	-878.58167	1706.73120	1392.75256	-847.73901	1686.04492	1567.94641	-737.32709	1666.41431	1430.44714	-696.16357	1647.75891	1503.64465	-640.47522	1526.55896	1501.37244	-578.50665	1246.33252	1509.22168	-775.90454	1448.08557	1503.42578	-822.74457	1277.71851	1444.29382	-571.54449	1348.27905	1678.60339	-719.09448	1501.74976	1782.66309	-739.35406	1313.27002	1814.37097	-771.34021	1178.36450	1832.71472	-829.27289	1059.36047	1801.87292	-925.45972	963.20898	1838.67834	-884.35229	949.65881	1845.29993	-928.99902	901.19415	1314.50146	-706.81641	1480.15991	1235.72925	-669.85779	1288.87976	1213.36707	-686.99481	1143.23340	1191.78101	-731.47748	1030.91638	1206.05005	-803.06287	916.17889	1179.53625	-754.65161	903.08014	1171.75220	-803.75458	850.28229	1635.70227	-816.39691	985.14417	1377.11633	-819.35065	977.13580	1551.16516	-605.23083	1023.62006	1437.31116	-600.38995	1022.68524	1671.90002	-742.89526	672.95074	1637.21936	-697.94647	472.84906	1633.03394	-625.99402	290.30240	1589.62195	-611.22754	69.26871	1538.22095	-573.94879	43.43356	1603.66602	-766.36444	28.31319	1287.69006	-795.55920	678.23694	1309.65125	-852.02307	476.09637	1312.83936	-823.24066	290.22421	1346.22498	-833.05060	97.06983	1411.88025	-829.63257	39.85085	1280.49023	-971.09686	53.05892	1457.44446	-780.51947	1793.99707						 
212	2.110	1531.05212	-887.09521	1705.36877	1391.51099	-855.72168	1684.55908	1567.05737	-745.94989	1665.58350	1429.81104	-704.00726	1646.83948	1503.36389	-648.34540	1525.79663	1500.87646	-586.03662	1245.63257	1508.62952	-783.88647	1447.14258	1502.93408	-830.20166	1276.61230	1443.98999	-579.20691	1347.52600	1677.95483	-727.70148	1501.05176	1781.99683	-750.33002	1313.04492	1813.66345	-784.26111	1178.62646	1831.69629	-843.57928	1060.27246	1800.04468	-940.28741	964.91168	1837.53198	-899.80945	951.21063	1843.90198	-945.06372	903.25641	1314.19275	-713.97778	1479.07666	1235.43787	-676.33319	1288.14221	1212.88574	-692.80060	1142.26880	1191.30066	-736.77057	1029.93677	1205.08533	-807.82751	914.77130	1179.00610	-759.24988	901.85461	1170.78528	-808.28998	848.97125	1635.20691	-823.61121	984.64203	1376.64746	-827.26453	976.31964	1550.39319	-612.56238	1022.67450	1436.64563	-608.07446	1021.58179	1671.62610	-748.11755	672.35431	1636.87866	-701.72589	472.53033	1632.59570	-627.99677	290.75497	1589.32495	-611.48792	69.63728	1537.66821	-574.31671	43.66841	1603.78735	-766.43896	28.28568	1287.92285	-803.39795	677.09320	1311.83936	-860.39978	474.73447	1313.93469	-839.24127	287.96393	1346.29553	-857.48865	95.16358	1411.06799	-856.63977	37.78195	1279.32202	-997.20355	55.54494	1456.37378	-789.08429	1792.98364						 
213	2.120	1529.60437	-895.59039	1703.98267	1390.20496	-863.56250	1683.01001	1566.21204	-754.44586	1664.70374	1429.07886	-712.01624	1645.85217	1502.91321	-656.07288	1524.88147	1500.25098	-593.67816	1244.69824	1507.89807	-791.62347	1446.06641	1502.28662	-837.68359	1275.52429	1443.31726	-587.05591	1346.56848	1677.19763	-736.16748	1500.22998	1781.13147	-761.15039	1312.67725	1812.86792	-796.89740	1178.72388	1830.61780	-857.50146	1060.99561	1798.03442	-954.74359	966.38300	1836.19153	-914.85217	952.58264	1842.08972	-960.34467	904.98419	1313.75403	-721.31433	1478.08032	1235.05042	-682.76996	1287.15076	1212.60425	-698.28790	1141.27332	1190.34985	-742.25092	1028.72632	1204.03186	-812.72986	913.37701	1178.40784	-764.13031	900.52094	1169.76001	-812.67340	847.42676	1634.62146	-830.96893	984.20062	1376.15442	-835.18488	975.48700	1549.51587	-620.01837	1021.61517	1435.88269	-615.85590	1020.39838	1671.29529	-753.31830	671.74994	1636.52856	-705.55658	472.26526	1632.12500	-630.03198	291.17706	1588.96680	-611.79584	69.93954	1537.19836	-574.59540	44.22591	1603.83350	-766.49585	28.11655	1288.25330	-810.92944	675.59760	1313.94080	-868.76666	473.42087	1315.04883	-854.63422	286.11563	1346.14624	-880.83325	93.66127	1410.82458	-882.71289	36.84534	1278.32471	-1022.22754	58.02094	1455.07788	-797.56232	1791.68298						 
